<svg width="60" height="60" viewBox="0 0 60 60" fill="none" xmlns="http://www.w3.org/2000/svg">
<rect width="60" height="60" rx="6" fill="#F7F8FD"/>
<path d="M30.0101 15C32.4367 15 34.8541 15.5986 37.002 16.731C44.3148 20.5896 47.1272 29.6782 43.2713 36.9936C40.6412 41.9819 35.4631 45 29.993 45C28.9243 45 27.8451 44.885 26.7711 44.6472C26.1661 44.5124 25.7844 43.9125 25.9178 43.3073C26.0512 42.7021 26.6496 42.3228 27.2586 42.4536C32.8449 43.6958 38.6122 41.0146 41.2845 35.9457C44.5632 29.7271 42.1722 21.9982 35.9545 18.7185C34.1289 17.7551 32.0735 17.2464 30.0088 17.2464C22.9654 17.2464 17.2457 22.9668 17.2457 29.998C17.243 32.0462 17.7423 34.0851 18.6895 35.8968L18.9774 36.4597C19.3301 37.1204 19.4081 37.941 19.1795 38.6837C18.8638 39.5161 18.601 40.3262 18.3843 41.1322C19.2271 40.8785 20.2561 40.5046 20.9998 40.2337L21.305 40.124C21.8822 39.9086 22.5308 40.2138 22.7422 40.7979C22.9535 41.3807 22.651 42.0255 22.0685 42.2356L21.7673 42.3453C20.6551 42.7483 19.1333 43.302 18.1056 43.5319C18.0184 43.5504 17.9246 43.5623 17.8388 43.5597C17.1492 43.5597 16.7292 43.2808 16.498 43.0456C16.1427 42.6849 15.9736 42.1788 15.9934 41.5419C15.996 41.4692 16.0053 41.3939 16.0224 41.3212C16.2893 40.1848 16.6367 39.051 17.0568 37.9529C17.0871 37.8459 17.0686 37.6516 16.9828 37.4891L16.6935 36.9275C15.5852 34.8053 14.9974 32.4043 15 29.9967C15 21.7273 21.7264 15 29.993 15H30.0101ZM29.9935 28.2142C30.9776 28.2142 31.7768 29.015 31.7768 29.9981C31.7768 30.9813 30.9776 31.7821 29.9935 31.7821C29.0094 31.7821 28.2102 30.9813 28.2102 29.9981C28.2102 29.015 29.0094 28.2142 29.9935 28.2142ZM36.5983 28.2142C37.5824 28.2142 38.3816 29.015 38.3816 29.9981C38.3816 30.9813 37.5824 31.7821 36.5983 31.7821C35.6142 31.7821 34.815 30.9813 34.815 29.9981C34.815 29.015 35.6142 28.2142 36.5983 28.2142ZM23.3885 28.2148C24.3726 28.2148 25.1718 29.0142 25.1718 29.9987C25.1718 30.9818 24.3726 31.7813 23.3885 31.7813C22.4044 31.7813 21.6052 30.9818 21.6052 29.9987C21.6052 29.0142 22.4044 28.2148 23.3885 28.2148Z" fill="#446DF6"/>
</svg>
