<svg width="60" height="60" viewBox="0 0 60 60" fill="none" xmlns="http://www.w3.org/2000/svg">
<rect width="60" height="60" rx="6" fill="#F7F8FD"/>
<path d="M35.7801 15C40.6001 15 43.4869 17.9272 43.5 22.8146V37.1854C43.5 42.0728 40.6263 45 35.7932 45H31.5087C30.9592 44.9386 30.5434 44.4678 30.5434 43.9073C30.5434 43.3468 30.9592 42.876 31.5087 42.8146H35.7801C39.4637 42.8146 41.3186 40.9205 41.3186 37.1854V22.8146C41.3186 19.0795 39.4637 17.1854 35.7801 17.1854H24.2068C20.5232 17.1854 18.6553 19.0795 18.6553 22.8146V37.1854C18.6553 40.9205 20.5232 42.8146 24.2068 42.8146C24.7563 42.876 25.1722 43.3468 25.1722 43.9073C25.1722 44.4678 24.7563 44.9386 24.2068 45C19.3868 45 16.5 42.0728 16.5 37.1854V22.8146C16.5 17.9139 19.3868 15 24.2068 15H35.7801ZM35.3882 35.2649C35.9798 35.2649 36.4594 35.7512 36.4594 36.351C36.4594 36.9508 35.9798 37.4371 35.3882 37.4371H24.5726C23.981 37.4371 23.5015 36.9508 23.5015 36.351C23.5015 35.7512 23.981 35.2649 24.5726 35.2649H35.3882ZM35.3882 28.9073C35.8016 28.8611 36.2046 29.0587 36.4255 29.4159C36.6465 29.7731 36.6465 30.2269 36.4255 30.5841C36.2046 30.9413 35.8016 31.1389 35.3882 31.0927H24.5726C24.0231 31.0313 23.6072 30.5605 23.6072 30C23.6072 29.4395 24.0231 28.9687 24.5726 28.9073H35.3882ZM28.7003 22.5629C29.2498 22.6243 29.6656 23.0951 29.6656 23.6556C29.6656 24.2161 29.2498 24.6869 28.7003 24.7483H24.5856C24.0362 24.6869 23.6203 24.2161 23.6203 23.6556C23.6203 23.0951 24.0362 22.6243 24.5856 22.5629H28.7003Z" fill="#446DF6"/>
</svg>
