<svg width="60" height="60" viewBox="0 0 60 60" fill="none" xmlns="http://www.w3.org/2000/svg">
<rect width="60" height="60" rx="6" fill="#F7F8FD"/>
<path d="M36.3213 15.75C41.1067 15.75 45 19.7322 45 24.6284V35.3716C45 40.2678 41.1067 44.25 36.3213 44.25C35.7693 44.25 35.3213 43.7916 35.3213 43.2268C35.3213 42.662 35.7693 42.2037 36.3213 42.2037C40.004 42.2037 43 39.1396 43 35.3716V26.7975H38.0747C36.4573 26.7988 35.1387 28.1467 35.1373 29.8029C35.1387 31.459 36.4573 32.8069 38.0747 32.8083H40.1213C40.6733 32.8083 41.1213 33.2666 41.1213 33.8314C41.1213 34.3962 40.6733 34.8546 40.1213 34.8546H38.0747C35.3533 34.8532 33.1387 32.5873 33.1373 29.8029C33.1387 27.0185 35.3533 24.7525 38.0747 24.7511H43V24.6284C43 20.8604 40.004 17.7963 36.3213 17.7963H23.6773C20.7093 17.7963 18.2187 19.799 17.3507 22.5425H30.532C31.084 22.5425 31.532 23.0008 31.532 23.5656C31.532 24.1318 31.084 24.5888 30.532 24.5888H17.004L17 24.6284V35.3716C17 39.1396 19.9947 42.2037 23.6773 42.2037H30.0387C30.5907 42.2037 31.0387 42.662 31.0387 43.2268C31.0387 43.7916 30.5907 44.25 30.0387 44.25H23.6773C18.892 44.25 15 40.2678 15 35.3716V24.6284C15 19.7322 18.892 15.75 23.6773 15.75H36.3213ZM38.7461 28.6875C39.2981 28.6875 39.7461 29.1459 39.7461 29.7106C39.7461 30.2754 39.2981 30.7338 38.7461 30.7338H38.2915C37.7395 30.7338 37.2915 30.2754 37.2915 29.7106C37.2915 29.1459 37.7395 28.6875 38.2915 28.6875H38.7461Z" fill="#446DF6"/>
</svg>
