<svg width="60" height="60" viewBox="0 0 60 60" fill="none" xmlns="http://www.w3.org/2000/svg">
<rect width="60" height="60" rx="6" fill="#F7F8FD"/>
<path d="M39.6387 32.9911C40.0411 32.9911 40.4434 33.0358 40.8357 33.1235C41.513 33.2741 41.9388 33.9409 41.7846 34.6078C41.6287 35.2747 40.9547 35.6966 40.2791 35.5428C38.5356 35.1489 36.7921 36.5207 36.7921 38.283C36.7921 39.8319 38.0679 41.0928 39.6387 41.0928C41.2079 41.0928 42.4853 39.8319 42.4853 38.283C42.4853 38.1242 42.4719 37.967 42.4468 37.8164C42.3311 37.1396 42.7955 36.5009 43.4795 36.3867C44.1618 36.2742 44.8122 36.7309 44.9262 37.4077C44.9749 37.6923 45 37.9852 45 38.283C45 41.2004 42.5943 43.575 39.6387 43.575C36.6815 43.575 34.2775 41.2004 34.2775 38.283C34.2775 35.364 36.6815 32.9911 39.6387 32.9911ZM28.0674 37.0416C28.7615 37.0416 29.3248 37.5976 29.3248 38.2827C29.3248 38.9678 28.7615 39.5238 28.0674 39.5238H17.7573C17.0633 39.5238 16.5 38.9678 16.5 38.2827C16.5 37.5976 17.0633 37.0416 17.7573 37.0416H28.0674ZM21.8618 16.5C24.819 16.5 27.223 18.8729 27.223 21.792C27.223 24.7093 24.819 27.0839 21.8618 27.0839C18.9045 27.0839 16.5005 24.7093 16.5005 21.792C16.5005 21.4941 16.5256 21.2012 16.5743 20.9166C16.6883 20.2398 17.3287 19.788 18.021 19.8956C18.705 20.0098 19.1694 20.6485 19.0537 21.3253C19.0286 21.4759 19.0152 21.6331 19.0152 21.792C19.0152 23.3408 20.2909 24.6017 21.8618 24.6017C23.4326 24.6017 24.7084 23.3408 24.7084 21.792C24.7084 20.2414 23.4326 18.9822 21.8618 18.9822C21.6472 18.9822 21.4326 19.0053 21.2281 19.0517C20.5491 19.2122 19.8752 18.7919 19.7176 18.125C19.56 17.4581 19.9808 16.7896 20.6581 16.6357C21.0504 16.5447 21.4544 16.5 21.8618 16.5ZM43.7423 20.5504C44.4364 20.5504 44.9997 21.1064 44.9997 21.7915C44.9997 22.4765 44.4364 23.0325 43.7423 23.0325H33.4339C32.7399 23.0325 32.1766 22.4765 32.1766 21.7915C32.1766 21.1064 32.7399 20.5504 33.4339 20.5504H43.7423Z" fill="#446DF6"/>
</svg>
