<svg width="60" height="60" viewBox="0 0 60 60" fill="none" xmlns="http://www.w3.org/2000/svg">
<rect width="60" height="60" rx="6" fill="#F7F8FD"/>
<path d="M35.687 15.0014C36.2551 15.0369 36.6934 15.5238 36.6783 16.1026V17.655C41.1913 18.0928 43.5 20.5871 43.5 25.0717V37.4771C43.5 42.4658 40.6565 45 35.0609 45H24.9391C19.3435 45 16.5 42.4658 16.5 37.4771V25.0717C16.5 22.0864 17.5174 19.9503 19.6043 18.7031L19.7507 18.6197C20.0533 18.4785 20.4081 18.4914 20.703 18.6626C21.0471 18.8624 21.2503 19.2431 21.2275 19.6455C21.2048 20.0478 20.96 20.4023 20.5957 20.5606C19.213 21.3832 18.5609 22.8161 18.5609 25.0717V25.4697H37.5913C38.1604 25.4697 38.6217 25.939 38.6217 26.5179C38.6217 27.0968 38.1604 27.566 37.5913 27.566H18.5609V37.4771C18.5609 41.285 20.413 42.8639 24.9391 42.8904H35.0609C39.5217 42.8904 41.4261 41.2717 41.4261 37.4639V25.0584C41.4261 21.7415 39.9783 20.136 36.6783 19.7513V20.7596C36.6022 21.2971 36.1395 21.6895 35.6061 21.669C35.0726 21.6485 34.6404 21.2218 34.6043 20.68V16.0097L34.6234 15.8438C34.6659 15.6264 34.7754 15.4267 34.9382 15.2751C35.1417 15.0856 35.4114 14.987 35.687 15.0014ZM36.2805 36.2955L36.4466 36.3062C36.7314 36.3419 36.9985 36.4725 37.2047 36.6802C37.4521 36.9294 37.5913 37.2689 37.5913 37.6231C37.5913 38.3558 37.0073 38.9499 36.287 38.9499C35.5666 38.9499 34.9826 38.3558 34.9826 37.6231C34.9826 36.8903 35.5666 36.2963 36.287 36.2963L36.2805 36.2955ZM30.0261 36.2963L30.1897 36.3066C30.8328 36.3885 31.3304 36.9467 31.3304 37.6231C31.3304 38.3558 30.7465 38.9499 30.0261 38.9499C29.3057 38.9499 28.7217 38.3558 28.7217 37.6231C28.7217 36.8903 29.3057 36.2963 30.0261 36.2963ZM23.772 36.2955L23.9379 36.3062C24.2227 36.3419 24.4898 36.4725 24.696 36.6802C24.9434 36.9294 25.0826 37.2689 25.0826 37.6231C25.0826 38.3558 24.4986 38.9499 23.7783 38.9499C23.0579 38.9499 22.4739 38.3558 22.4739 37.6231C22.4739 36.8903 23.0579 36.2963 23.7783 36.2963L23.772 36.2955ZM36.2805 30.9225L36.4466 30.9327C36.7314 30.9684 36.9985 31.099 37.2047 31.3067C37.4521 31.5559 37.5913 31.8954 37.5913 32.2496C37.5913 32.9824 37.0073 33.5764 36.287 33.5764C35.5666 33.5764 34.9826 32.9824 34.9826 32.2496C34.9826 31.5168 35.5666 30.9228 36.287 30.9228L36.2805 30.9225ZM30.0261 30.9228L30.1897 30.9331C30.8328 31.015 31.3304 31.5732 31.3304 32.2496C31.3304 32.9824 30.7465 33.5764 30.0261 33.5764C29.3057 33.5764 28.7217 32.9824 28.7217 32.2496C28.7217 31.5168 29.3057 30.9228 30.0261 30.9228ZM23.772 30.9225L23.9379 30.9327C24.2227 30.9684 24.4898 31.099 24.696 31.3067C24.9434 31.5559 25.0826 31.8954 25.0826 32.2496C25.0826 32.9824 24.4986 33.5764 23.7783 33.5764C23.0579 33.5764 22.4739 32.9824 22.4739 32.2496C22.4739 31.5168 23.0579 30.9228 23.7783 30.9228L23.772 30.9225ZM24.3587 15.1597C24.8899 15.1597 25.3364 15.5656 25.3957 16.1026V17.5488H31.2913C31.8604 17.5488 32.3217 18.0181 32.3217 18.597C32.3217 19.1759 31.8604 19.6451 31.2913 19.6451H25.3696V20.6933C25.3696 20.9736 25.2592 21.2422 25.0632 21.4392C24.8671 21.6361 24.6016 21.745 24.3261 21.7415L24.1754 21.7264C23.6845 21.6401 23.3151 21.2017 23.3217 20.68V16.1026L23.3508 15.9457C23.4712 15.4885 23.8806 15.1597 24.3587 15.1597Z" fill="#446DF6"/>
</svg>
