<svg width="60" height="60" viewBox="0 0 60 60" fill="none" xmlns="http://www.w3.org/2000/svg">
<rect width="60" height="60" rx="6" fill="#F7F8FD"/>
<path d="M38.3296 22.7969C42.0075 22.7969 45 25.9077 45 29.7312V37.3313C45 41.1454 42.015 44.25 38.3446 44.25H26.9237C26.2862 44.25 25.7702 43.7105 25.7702 43.0493C25.7702 42.3851 26.2862 41.8471 26.9237 41.8471H38.3446C40.74 41.8471 42.69 39.8215 42.69 37.3313V29.7312C42.69 27.2316 40.734 25.1982 38.3296 25.1982H36.9331C36.2956 25.1982 35.7796 24.6618 35.7796 23.9976C35.7796 23.3349 36.2956 22.7969 36.9331 22.7969H38.3296ZM23.0669 22.7977C23.7044 22.7977 24.2219 23.3356 24.2219 23.9983C24.2219 24.6611 23.7044 25.199 23.0669 25.199H21.6554C19.26 25.199 17.31 27.2261 17.31 29.7148V37.3149C17.31 39.8145 19.266 41.8479 21.6704 41.8479C22.3079 41.8479 22.8254 42.3858 22.8254 43.0485C22.8254 43.7113 22.3079 44.2492 21.6704 44.2492C17.9925 44.2492 15 41.1384 15 37.3149L15 29.7148C15 25.9007 17.985 22.7977 21.6554 22.7977H23.0669ZM29.9997 15.75C30.6372 15.75 31.1562 16.265 31.1562 16.8993V34.8319C31.1562 35.2976 30.8742 35.717 30.4407 35.8946C30.0087 36.0722 29.5107 35.9722 29.1807 35.6439L24.8188 31.2824C24.5953 31.0585 24.4828 30.7644 24.4828 30.4704C24.4828 30.1763 24.5953 29.8808 24.8218 29.6569C25.2747 29.2091 26.0052 29.2106 26.4552 29.6599L28.8447 32.0481V16.8993C28.8447 16.265 29.3622 15.75 29.9997 15.75ZM33.5418 29.6626C33.9903 29.2118 34.7208 29.2073 35.1752 29.6536C35.6297 30.0984 35.6327 30.8253 35.1842 31.2791L34.0923 32.3792C33.6453 32.8299 32.9133 32.8344 32.4603 32.3866C32.2308 32.1627 32.1168 31.8672 32.1168 31.5702C32.1168 31.2791 32.2278 30.9865 32.4513 30.7611L33.5418 29.6626Z" fill="#446DF6"/>
</svg>
