<svg width="60" height="60" viewBox="0 0 60 60" fill="none" xmlns="http://www.w3.org/2000/svg">
<rect width="60" height="60" rx="6" fill="#F7F8FD"/>
<path d="M38.2469 44.8791C38.0624 44.8836 37.8794 44.8371 37.7189 44.7441L30.0119 40.6851L23.2259 44.3391C22.1189 44.9391 20.7329 44.5281 20.1329 43.4196C20.1254 43.4061 20.1179 43.3926 20.1104 43.3776C19.8749 42.9141 19.7924 42.3906 19.8734 41.8776L21.1934 34.0866L15.6764 28.5006C14.7749 27.5706 14.7749 26.0916 15.6764 25.1601C16.0274 24.7911 16.4924 24.5526 16.9964 24.4836L24.5609 23.3346L27.9254 16.3251C28.4489 15.1851 29.7974 14.6841 30.9389 15.2076C31.4339 15.4341 31.8299 15.8316 32.0564 16.3251L35.4359 23.3586L43.0259 24.5211C43.6394 24.6126 44.1899 24.9516 44.5499 25.4571C45.2219 26.4231 45.1199 27.7281 44.3069 28.5786L38.8154 34.0986L39.5804 38.2971C39.6869 38.9271 39.2714 39.5286 38.6429 39.6471C38.0249 39.7581 37.4339 39.3471 37.3229 38.7276L36.5444 34.5291C36.4139 33.7596 36.6584 32.9736 37.2044 32.4171L42.7094 26.8581L35.1194 25.6806C34.3499 25.5561 33.6974 25.0461 33.3899 24.3306L30.0119 17.3271L26.5919 24.4416C26.2844 25.1586 25.6319 25.6671 24.8624 25.7916L17.2979 26.9406L22.7624 32.4906C23.3069 33.0381 23.5514 33.8136 23.4224 34.5741L22.1024 42.3651L28.8869 38.7261C29.5589 38.3481 30.3794 38.3481 31.0514 38.7261L38.7479 42.7851C39.2174 43.0416 39.4559 43.5831 39.3284 44.1036C39.2114 44.6241 38.7524 44.9946 38.2199 45.0036L38.2469 44.8791Z" fill="#446DF6"/>
</svg>
